<svg xmlns="http://www.w3.org/2000/svg" width="16" height="16" viewBox="0 0 16 16">
  <defs>
    <style>
      .cls-1 {
        fill: #95e1d3;
        fill-rule: evenodd;
      }
    </style>
  </defs>
  <path id="instagram" class="cls-1" d="M561,5503.01H549a1.994,1.994,0,0,1-2-1.99v-12.01a2,2,0,0,1,2-2h12a2,2,0,0,1,2,2v12.01A2,2,0,0,1,561,5503.01Zm-6-11.1a3.1,3.1,0,0,0-2.812,1.8h0a0.177,0.177,0,0,1-.014.04,2.082,2.082,0,0,0-.08.2,0.867,0.867,0,0,0-.036.1c-0.023.07-.042,0.14-0.06,0.21-0.008.03-.018,0.07-0.025,0.1-0.017.08-.028,0.15-0.039,0.23,0,0.03-.01.06-0.014,0.09-0.011.11-.018,0.22-0.018,0.33a3.1,3.1,0,0,0,6.2,0c0-.11-0.007-0.22-0.018-0.33,0-.03-0.01-0.06-0.015-0.09-0.01-.08-0.022-0.15-0.038-0.23-0.007-.03-0.017-0.07-0.026-0.1-0.018-.07-0.036-0.14-0.059-0.21a0.867,0.867,0,0,0-.036-0.1,2.082,2.082,0,0,0-.08-0.2,0.177,0.177,0,0,1-.014-0.04h0A3.1,3.1,0,0,0,555,5491.91Zm6.2-2.29a0.8,0.8,0,0,0-.8-0.8h-1.6a0.8,0.8,0,0,0-.8.8v1.59a0.8,0.8,0,0,0,.8.8h1.6a0.8,0.8,0,0,0,.8-0.8v-1.59Zm0,4.09h-1.475a4.9,4.9,0,1,1-9.45,0H548.8v6.7a0.8,0.8,0,0,0,.8.8h10.8a0.8,0.8,0,0,0,.8-0.8v-6.7Z" transform="translate(-547 -5487)"/>
</svg>
