<svg xmlns="http://www.w3.org/2000/svg" width="12.25" height="16" viewBox="0 0 12.25 16">
  <defs>
    <style>
      .cls-1 {
        fill: #95e1d3;
        fill-rule: evenodd;
      }
    </style>
  </defs>
  <path id="pinterest" class="cls-1" d="M583.844,5497.42c-0.131.52-.262,1.07-0.4,1.6a12.291,12.291,0,0,1-.448,1.55,7.975,7.975,0,0,1-1.277,2.2c-0.359.42-.283,0.25-0.391,0.23-0.083-.02-0.09-0.1-0.106-0.22a12.065,12.065,0,0,1,0-2.09,11.384,11.384,0,0,1,.367-2.17c0.3-1.29.592-2.55,0.9-3.85a0.814,0.814,0,0,0,.056-0.28,3.967,3.967,0,0,1-.267-1.06,3.341,3.341,0,0,1,.087-1.21,2,2,0,0,1,1.183-1.46,1.328,1.328,0,0,1,1.084.08,1.155,1.155,0,0,1,.542.78,2.773,2.773,0,0,1-.05,1.18c-0.166.76-.386,1.33-0.585,2.07a2.253,2.253,0,0,0-.118,1.13,1.335,1.335,0,0,0,.529.8,1.535,1.535,0,0,0,1.016.28,2.237,2.237,0,0,0,1.657-.98,5.794,5.794,0,0,0,1.046-2.93,7.066,7.066,0,0,0,.044-1.26,3.471,3.471,0,0,0-.7-1.95,3.3,3.3,0,0,0-1.57-1.06,5.039,5.039,0,0,0-2.342-.15,4.147,4.147,0,0,0-3.072,2.21,4.412,4.412,0,0,0-.523,2.13,2.755,2.755,0,0,0,.424,1.56c0.083,0.13.205,0.23,0.286,0.38a1.058,1.058,0,0,1-.075.72c-0.068.27-.076,0.64-0.386,0.64a0.975,0.975,0,0,1-.4-0.15,3.2,3.2,0,0,1-1.513-2.33,5.585,5.585,0,0,1,0-2.03,5.771,5.771,0,0,1,2.747-3.84,6.6,6.6,0,0,1,2.442-.84c0.318-.05.647-0.06,1-0.08a6.139,6.139,0,0,1,2.7.5,5.549,5.549,0,0,1,1.863,1.35,5.7,5.7,0,0,1,1.394,3.49,8.508,8.508,0,0,1-.192,1.48,5.829,5.829,0,0,1-2.4,4.04,4.386,4.386,0,0,1-1.1.51,3.936,3.936,0,0,1-1.4.17,2.849,2.849,0,0,1-1.239-.36A2.01,2.01,0,0,1,583.844,5497.42Z" transform="translate(-578.75 -5487.03)"/>
</svg>
