<svg xmlns="http://www.w3.org/2000/svg" width="10" height="16.03" viewBox="0 0 10 16.03">
  <defs>
    <style>
      .cls-1 {
        fill: #95e1d3;
        fill-rule: evenodd;
      }
    </style>
  </defs>
  <path id="tumblr" class="cls-1" d="M710.009,5502.15a9.526,9.526,0,0,1-1.849.67,7.788,7.788,0,0,1-1.79.2,4.726,4.726,0,0,1-1.717-.28,4.089,4.089,0,0,1-1.431-.79,2.892,2.892,0,0,1-.823-1.09,4.784,4.784,0,0,1-.228-1.68v-5.61h-2.164v-2.27a5.566,5.566,0,0,0,1.8-.88,4.389,4.389,0,0,0,1.075-1.37,6.3,6.3,0,0,0,.558-2.04H705.7v3.7h3.682v2.86H705.7v4.1a7.024,7.024,0,0,0,.086,1.73,1.494,1.494,0,0,0,.607.69,2.32,2.32,0,0,0,1.209.32,4.31,4.31,0,0,0,2.406-.79v2.53Z" transform="translate(-700 -5487)"/>
</svg>
